<svg width="159" height="48" viewBox="0 0 159 48" fill="none" xmlns="http://www.w3.org/2000/svg">
<g clip-path="url(#clip0_2077_9706)">
<g clip-path="url(#clip1_2077_9706)">
<g clip-path="url(#clip2_2077_9706)">
<mask id="mask0_2077_9706" style="mask-type:luminance" maskUnits="userSpaceOnUse" x="0" y="0" width="159" height="48">
<path d="M158.739 0.5625H0.242188V47.5269H158.739V0.5625Z" fill="white"/>
</mask>
<g mask="url(#mask0_2077_9706)">
<path d="M152.647 47.4105H6.21662C2.99513 47.4105 0.359375 44.7818 0.359375 41.5691V6.52103C0.359375 3.30829 2.99513 0.679688 6.21662 0.679688H152.647C155.869 0.679688 158.504 3.30829 158.504 6.52103V41.5691C158.504 44.7818 155.869 47.4105 152.647 47.4105Z" fill="#24221E"/>
<path d="M152.647 0.679688H6.21662C2.99513 0.679688 0.359375 3.30829 0.359375 6.52103V41.5691C0.359375 44.7818 2.99513 47.4105 6.21662 47.4105H152.647C155.869 47.4105 158.504 44.7818 158.504 41.5691V6.52103C158.504 3.30829 155.869 0.679688 152.647 0.679688ZM152.647 1.61431C155.361 1.61431 157.568 3.81579 157.568 6.52103V41.5691C157.568 44.2748 155.361 46.4763 152.647 46.4763H6.21662C3.50401 46.4763 1.29653 44.2748 1.29653 41.5691V6.52103C1.29653 3.81579 3.50401 1.61431 6.21662 1.61431H152.647Z" fill="#24221E"/>
<path d="M55.7284 12.0053H52.3276V12.8451H54.8754C54.8076 13.5296 54.5332 14.068 54.0719 14.4587C53.6107 14.8494 53.023 15.0447 52.3276 15.0447C51.5624 15.0447 50.9145 14.7818 50.3856 14.2542C49.8658 13.7158 49.6022 13.0513 49.6022 12.25C49.6022 11.4468 49.8658 10.7823 50.3856 10.2458C50.9145 9.71632 51.5624 9.45346 52.3276 9.45346C52.7192 9.45346 53.0908 9.52098 53.435 9.66888C53.7772 9.81491 54.0517 10.0194 54.2677 10.284L54.9139 9.63968C54.621 9.30743 54.2476 9.05193 53.7882 8.86571C53.327 8.68137 52.8455 8.59375 52.3276 8.59375C51.308 8.59375 50.4441 8.94422 49.7395 9.64879C49.033 10.3533 48.6797 11.2223 48.6797 12.25C48.6797 13.2759 49.033 14.1465 49.7395 14.8494C50.4441 15.5539 51.308 15.9062 52.3276 15.9062C53.3946 15.9062 54.2476 15.563 54.9048 14.8694C55.4831 14.2926 55.7778 13.5113 55.7778 12.533C55.7778 12.3669 55.7576 12.1897 55.7284 12.0053ZM57.0833 8.7489V15.7492H61.1795V14.8895H57.9838V12.6698H60.8666V11.8283H57.9838V9.61047H61.1795V8.7489H57.0833ZM66.9519 9.61047V8.7489H62.129V9.61047H64.0894V15.7492H64.9899V9.61047H66.9519ZM71.3531 8.7489H70.4525V15.7492H71.3531V8.7489ZM77.3186 9.61047V8.7489H72.4957V9.61047H74.456V15.7492H75.3564V9.61047H77.3186ZM86.4538 9.6579C85.7583 8.94422 84.9054 8.59375 83.8859 8.59375C82.8663 8.59375 82.0135 8.94422 81.3179 9.64879C80.6224 10.3425 80.2782 11.2132 80.2782 12.25C80.2782 13.285 80.6224 14.1556 81.3179 14.8494C82.0135 15.5539 82.8663 15.9062 83.8859 15.9062C84.8963 15.9062 85.7583 15.5539 86.4538 14.8494C87.1512 14.1556 87.4935 13.285 87.4935 12.25C87.4935 11.2223 87.1512 10.3533 86.4538 9.6579ZM81.964 10.2458C82.4838 9.71632 83.1208 9.45346 83.8859 9.45346C84.6509 9.45346 85.288 9.71632 85.7985 10.2458C86.3166 10.7641 86.5728 11.4377 86.5728 12.25C86.5728 13.0604 86.3166 13.7359 85.7985 14.2542C85.288 14.7818 84.6509 15.0447 83.8859 15.0447C83.1208 15.0447 82.4838 14.7818 81.964 14.2542C81.4552 13.7249 81.2007 13.0604 81.2007 12.25C81.2007 11.4377 81.4552 10.7732 81.964 10.2458ZM89.6717 11.3885L89.633 10.0394H89.6717L93.2407 15.7492H94.1816V8.7489H93.2791V12.8451L93.3195 14.194H93.2791L89.8674 8.7489H88.771V15.7492H89.6717V11.3885Z" fill="white" stroke="white" stroke-width="0.255589" stroke-miterlimit="10"/>
<path d="M125.51 35.6104H127.696V21.0056H125.51V35.6104ZM145.199 26.2668L142.693 32.5986H142.618L140.017 26.2668H137.662L141.563 35.1163L139.339 40.0392H141.619L147.629 26.2668H145.199ZM132.801 33.9517C132.087 33.9517 131.087 33.5942 131.087 32.7113C131.087 31.5841 132.331 31.1519 133.405 31.1519C134.365 31.1519 134.819 31.3583 135.402 31.6402C135.232 32.9933 134.064 33.9517 132.801 33.9517ZM133.066 25.9473C131.483 25.9473 129.845 26.6427 129.167 28.1835L131.106 28.9912C131.521 28.1835 132.293 27.9206 133.104 27.9206C134.234 27.9206 135.383 28.5964 135.402 29.7993V29.9494C135.006 29.724 134.158 29.3859 133.122 29.3859C131.03 29.3859 128.902 30.5317 128.902 32.6738C128.902 34.6279 130.617 35.887 132.537 35.887C134.007 35.887 134.819 35.2293 135.326 34.4587H135.402V35.5867H137.513V29.9868C137.513 27.394 135.571 25.9473 133.066 25.9473ZM119.557 28.0447H116.449V23.0387H119.557C121.191 23.0387 122.119 24.3876 122.119 25.5416C122.119 26.6734 121.191 28.0447 119.557 28.0447ZM119.501 21.0056H114.263V35.6104H116.449V30.0773H119.501C121.923 30.0773 124.305 28.3286 124.305 25.5416C124.305 22.7552 121.923 21.0056 119.501 21.0056ZM90.9402 33.9543C89.4302 33.9543 88.1663 32.6929 88.1663 30.9621C88.1663 29.2111 89.4302 27.9319 90.9402 27.9319C92.4311 27.9319 93.6011 29.2111 93.6011 30.9621C93.6011 32.6929 92.4311 33.9543 90.9402 33.9543ZM93.4502 27.0846H93.3745C92.8841 26.5013 91.94 25.9743 90.7517 25.9743C88.2601 25.9743 85.9768 28.1579 85.9768 30.9621C85.9768 33.7472 88.2601 35.9116 90.7517 35.9116C91.94 35.9116 92.8841 35.3844 93.3745 34.7825H93.4502V35.4972C93.4502 37.3988 92.4311 38.4146 90.7892 38.4146C89.4498 38.4146 88.6194 37.4549 88.2794 36.6459L86.3736 37.4362C86.9204 38.7532 88.3732 40.3724 90.7892 40.3724C93.3563 40.3724 95.5266 38.8664 95.5266 35.196V26.2755H93.4502V27.0846ZM97.0371 35.6104H99.2252V21.0056H97.0371V35.6104ZM102.452 30.7924C102.396 28.8725 103.944 27.8941 105.057 27.8941C105.925 27.8941 106.661 28.3271 106.906 28.9478L102.452 30.7924ZM109.246 29.1358C108.831 28.026 107.567 25.9743 104.981 25.9743C102.414 25.9743 100.281 27.9881 100.281 30.943C100.281 33.7285 102.396 35.9116 105.226 35.9116C107.509 35.9116 108.831 34.5192 109.378 33.7096L107.68 32.5802C107.113 33.4085 106.34 33.9543 105.226 33.9543C104.113 33.9543 103.32 33.446 102.812 32.4484L109.472 29.7007L109.246 29.1358ZM56.1716 27.4988V29.6067H61.2292C61.0782 30.7924 60.6819 31.658 60.0779 32.2604C59.3417 32.9942 58.1904 33.8038 56.1716 33.8038C53.0576 33.8038 50.6233 31.3007 50.6233 28.1953C50.6233 25.0898 53.0576 22.5864 56.1716 22.5864C57.8513 22.5864 59.0777 23.2453 59.9836 24.0923L61.475 22.605C60.2102 21.4007 58.5309 20.4785 56.1716 20.4785C51.9059 20.4785 48.3203 23.9417 48.3203 28.1953C48.3203 32.4484 51.9059 35.9116 56.1716 35.9116C58.4736 35.9116 60.2102 35.1586 61.5688 33.7472C62.9654 32.3544 63.3996 30.3971 63.3996 28.8159C63.3996 28.3271 63.3615 27.8754 63.2861 27.4988H56.1716ZM69.1496 33.9543C67.6396 33.9543 66.3373 32.7121 66.3373 30.943C66.3373 29.155 67.6396 27.9319 69.1496 27.9319C70.6591 27.9319 71.9613 29.155 71.9613 30.943C71.9613 32.7121 70.6591 33.9543 69.1496 33.9543ZM69.1496 25.9743C66.3935 25.9743 64.1481 28.0634 64.1481 30.943C64.1481 33.8038 66.3935 35.9116 69.1496 35.9116C71.9047 35.9116 74.1506 33.8038 74.1506 30.943C74.1506 28.0634 71.9047 25.9743 69.1496 25.9743ZM80.0588 33.9543C78.5498 33.9543 77.247 32.7121 77.247 30.943C77.247 29.155 78.5498 27.9319 80.0588 27.9319C81.5689 27.9319 82.8707 29.155 82.8707 30.943C82.8707 32.7121 81.5689 33.9543 80.0588 33.9543ZM80.0588 25.9743C77.3038 25.9743 75.0584 28.0634 75.0584 30.943C75.0584 33.8038 77.3038 35.9116 80.0588 35.9116C82.8149 35.9116 85.0603 33.8038 85.0603 30.943C85.0603 28.0634 82.8149 25.9743 80.0588 25.9743Z" fill="white"/>
<path d="M24.5106 23.2559L12.0391 36.457C12.0395 36.4597 12.0405 36.462 12.041 36.4647C12.4234 37.8981 13.7362 38.9536 15.2944 38.9536C15.9172 38.9536 16.5019 38.7857 17.0034 38.4909L17.0433 38.4676L31.0815 30.389L24.5106 23.2559Z" fill="#EB3131"/>
<path d="M37.1293 21.0062L37.1173 20.9981L31.0567 17.4941L24.2285 23.5536L31.0804 30.386L37.1091 26.9168C38.1661 26.3478 38.8836 25.2366 38.8836 23.9551C38.8836 22.6829 38.1757 21.5772 37.1293 21.0062Z" fill="#F6B60B"/>
<path d="M12.0382 11.4004C11.9632 11.676 11.9238 11.9648 11.9238 12.2647V35.5917C11.9238 35.891 11.9627 36.1808 12.0387 36.4555L24.9394 23.5922L12.0382 11.4004Z" fill="#5778C5"/>
<path d="M24.603 23.9281L31.0582 17.4923L17.0359 9.38445C16.5262 9.08 15.9314 8.9043 15.2948 8.9043C13.7367 8.9043 12.4222 9.96167 12.0395 11.3969L12.0391 11.4005L24.603 23.9281Z" fill="#3BAD49"/>
</g>
</g>
</g>
</g>
<defs>
<clipPath id="clip0_2077_9706">
<rect width="158.146" height="46.9658" fill="white" transform="translate(0.509766 0.5625)"/>
</clipPath>
<clipPath id="clip1_2077_9706">
<rect width="158.146" height="46.9658" fill="white" transform="translate(0.509766 0.5625)"/>
</clipPath>
<clipPath id="clip2_2077_9706">
<rect width="158.146" height="46.9644" fill="white" transform="translate(0.509766 0.5625)"/>
</clipPath>
</defs>
</svg>
