<svg width="26" height="27" viewBox="0 0 26 27" fill="none" xmlns="http://www.w3.org/2000/svg">
<rect x="1" y="1.5625" width="24" height="24" rx="12" stroke="#871E35" stroke-width="2"/>
<path d="M18.4594 13.983C18.5394 13.863 18.5894 13.743 18.6094 13.623C18.6294 13.503 18.5994 13.383 18.5194 13.263L14.4994 9.18305C14.3794 9.06305 14.2394 9.00305 14.0794 9.00305C13.9194 9.00305 13.7894 9.06305 13.6894 9.18305C13.5894 9.30305 13.5394 9.44305 13.5394 9.60305C13.5394 9.76305 13.5794 9.88305 13.6594 9.96305L16.7194 13.023H7.95938C7.79938 13.023 7.65938 13.073 7.53938 13.173C7.41938 13.273 7.35938 13.403 7.35938 13.563C7.35938 13.723 7.41938 13.853 7.53938 13.953C7.65938 14.053 7.79938 14.103 7.95938 14.103H16.7194L13.6594 17.163C13.5794 17.243 13.5394 17.363 13.5394 17.523C13.5394 17.683 13.5894 17.823 13.6894 17.943C13.7894 18.063 13.9194 18.123 14.0794 18.123C14.2394 18.123 14.3794 18.063 14.4994 17.943L18.4594 13.983Z" fill="#871E35"/>
</svg>
