<svg width="33" height="32" viewBox="0 0 33 32" fill="none" xmlns="http://www.w3.org/2000/svg">
<g clip-path="url(#clip0_2075_15172)">
<path d="M17.3399 2.95541L28.6733 9.28874C29.006 9.45483 29.2858 9.71038 29.4813 10.0267C29.6768 10.343 29.7802 10.7076 29.7799 11.0794V12.9994C29.7799 13.9194 29.0333 14.6661 28.1133 14.6661H27.1133V25.3327H28.4466C28.8002 25.3327 29.1394 25.4732 29.3894 25.7233C29.6395 25.9733 29.7799 26.3125 29.7799 26.6661C29.7799 27.0197 29.6395 27.3588 29.3894 27.6089C29.1394 27.8589 28.8002 27.9994 28.4466 27.9994H4.44661C4.09299 27.9994 3.75385 27.8589 3.50381 27.6089C3.25376 27.3588 3.11328 27.0197 3.11328 26.6661C3.11328 26.3125 3.25376 25.9733 3.50381 25.7233C3.75385 25.4732 4.09299 25.3327 4.44661 25.3327H5.77995V14.6661H4.77995C3.85995 14.6661 3.11328 13.9194 3.11328 12.9994V11.0794C3.11328 10.3834 3.47328 9.74341 4.05461 9.38074L15.5519 2.95541C15.8297 2.81647 16.136 2.74414 16.4466 2.74414C16.7572 2.74414 17.0622 2.81647 17.3399 2.95541ZM24.4466 14.6661H8.44661V25.3327H12.4466V17.3327H15.1133V25.3327H17.7799V17.3327H20.4466V25.3327H24.4466V14.6661ZM16.4466 5.49007L5.77995 11.4901V11.9994H27.1133V11.4901L16.4466 5.49007ZM16.4466 7.99941C16.8002 7.99941 17.1394 8.13988 17.3894 8.38993C17.6395 8.63998 17.7799 8.97912 17.7799 9.33274C17.7799 9.68636 17.6395 10.0255 17.3894 10.2755C17.1394 10.5256 16.8002 10.6661 16.4466 10.6661C16.093 10.6661 15.7539 10.5256 15.5038 10.2755C15.2538 10.0255 15.1133 9.68636 15.1133 9.33274C15.1133 8.97912 15.2538 8.63998 15.5038 8.38993C15.7539 8.13988 16.093 7.99941 16.4466 7.99941Z" fill="#3C3A37"/>
</g>
<defs>
<clipPath id="clip0_2075_15172">
<rect width="32" height="32" fill="white" transform="translate(0.447266)"/>
</clipPath>
</defs>
</svg>
