<svg width="49" height="48" viewBox="0 0 49 48" fill="none" xmlns="http://www.w3.org/2000/svg">
<circle cx="24.4473" cy="24" r="24" fill="#E3E2E2"/>
<g clip-path="url(#clip0_2075_15170)">
<path d="M25.3399 10.9554L36.6733 17.2887C37.006 17.4548 37.2858 17.7104 37.4813 18.0267C37.6768 18.343 37.7802 18.7076 37.7799 19.0794V20.9994C37.7799 21.9194 37.0333 22.6661 36.1133 22.6661H35.1133V33.3327H36.4466C36.8002 33.3327 37.1394 33.4732 37.3894 33.7233C37.6395 33.9733 37.7799 34.3125 37.7799 34.6661C37.7799 35.0197 37.6395 35.3588 37.3894 35.6089C37.1394 35.8589 36.8002 35.9994 36.4466 35.9994H12.4466C12.093 35.9994 11.7539 35.8589 11.5038 35.6089C11.2538 35.3588 11.1133 35.0197 11.1133 34.6661C11.1133 34.3125 11.2538 33.9733 11.5038 33.7233C11.7539 33.4732 12.093 33.3327 12.4466 33.3327H13.7799V22.6661H12.7799C11.8599 22.6661 11.1133 21.9194 11.1133 20.9994V19.0794C11.1133 18.3834 11.4733 17.7434 12.0546 17.3807L23.5519 10.9554C23.8297 10.8165 24.136 10.7441 24.4466 10.7441C24.7572 10.7441 25.0622 10.8165 25.3399 10.9554ZM32.4466 22.6661H16.4466V33.3327H20.4466V25.3327H23.1133V33.3327H25.7799V25.3327H28.4466V33.3327H32.4466V22.6661ZM24.4466 13.4901L13.7799 19.4901V19.9994H35.1133V19.4901L24.4466 13.4901ZM24.4466 15.9994C24.8002 15.9994 25.1394 16.1399 25.3894 16.3899C25.6395 16.64 25.7799 16.9791 25.7799 17.3327C25.7799 17.6864 25.6395 18.0255 25.3894 18.2755C25.1394 18.5256 24.8002 18.6661 24.4466 18.6661C24.093 18.6661 23.7539 18.5256 23.5038 18.2755C23.2538 18.0255 23.1133 17.6864 23.1133 17.3327C23.1133 16.9791 23.2538 16.64 23.5038 16.3899C23.7539 16.1399 24.093 15.9994 24.4466 15.9994Z" fill="#3C3A37"/>
</g>
<defs>
<clipPath id="clip0_2075_15170">
<rect width="32" height="32" fill="white" transform="translate(8.44727 8)"/>
</clipPath>
</defs>
</svg>
