<svg width="141" height="53" viewBox="0 0 141 53" fill="none" xmlns="http://www.w3.org/2000/svg">
<g clip-path="url(#clip0_2077_9676)">
<g clip-path="url(#clip1_2077_9676)">
<g clip-path="url(#clip2_2077_9676)">
<path d="M129.677 0.562653H11.2265C10.7947 0.562653 10.3681 0.562653 9.93757 0.565001C9.57707 0.567349 9.21947 0.574171 8.85553 0.579913C8.0649 0.58919 7.27612 0.658552 6.49606 0.787395C5.71709 0.919043 4.96253 1.16724 4.25789 1.52358C3.5541 1.88294 2.91103 2.3499 2.35202 2.9075C1.79007 3.46353 1.32164 4.10624 0.964735 4.8109C0.606853 5.51415 0.358696 6.26775 0.228835 7.04566C0.0977406 7.8226 0.0271969 8.6085 0.0178382 9.3963C0.00691158 9.7563 0.00575769 10.1175 0 10.4775V37.617C0.00575769 37.9816 0.00691158 38.3347 0.0178382 38.6994C0.0271998 39.4872 0.0977435 40.2731 0.228835 41.05C0.358337 41.8283 0.606509 42.5823 0.964735 43.2859C1.32147 43.9882 1.78997 44.6283 2.35202 45.1813C2.90892 45.7414 3.5524 46.2087 4.25789 46.5652C4.96252 46.9225 5.717 47.1722 6.49606 47.3059C7.27625 47.4337 8.06494 47.5031 8.85553 47.5135C9.21947 47.5215 9.57707 47.5261 9.93757 47.5261C10.3681 47.5284 10.7947 47.5284 11.2265 47.5284H129.677C130.1 47.5284 130.53 47.5284 130.953 47.5261C131.312 47.5261 131.681 47.5215 132.039 47.5135C132.828 47.5037 133.616 47.4343 134.394 47.3059C135.175 47.1713 135.932 46.9217 136.641 46.5652C137.345 46.2085 137.988 45.7412 138.545 45.1813C139.105 44.6262 139.575 43.9866 139.936 43.2859C140.292 42.5819 140.537 41.8279 140.665 41.05C140.797 40.273 140.87 39.4873 140.884 38.6994C140.888 38.3347 140.888 37.9816 140.888 37.617C140.897 37.1905 140.897 36.7662 140.897 36.3327V11.7595C140.897 11.3295 140.897 10.903 140.888 10.4775C140.888 10.1175 140.888 9.7563 140.884 9.39626C140.87 8.60839 140.797 7.82267 140.665 7.04562C140.537 6.26815 140.292 5.51461 139.936 4.81085C139.209 3.39844 138.056 2.24875 136.641 1.52347C135.932 1.168 135.175 0.919874 134.394 0.78729C133.616 0.657879 132.828 0.588493 132.039 0.579748C131.681 0.574018 131.312 0.567138 130.953 0.564848C130.53 0.5625 130.1 0.562653 129.677 0.562653Z" fill="#24221E"/>
<path d="M9.9427 46.5009C9.58396 46.5009 9.23389 46.4963 8.87796 46.4883C8.14063 46.4787 7.40502 46.4147 6.67716 46.2968C5.99847 46.1802 5.34101 45.9634 4.72644 45.6535C4.11753 45.3462 3.56213 44.9431 3.08156 44.4599C2.59404 43.9823 2.18814 43.4284 1.87997 42.8202C1.56841 42.208 1.35279 41.5517 1.24063 40.8743C1.11949 40.1466 1.05396 39.4106 1.04458 38.6728C1.03711 38.4252 1.02734 37.6007 1.02734 37.6007V10.4773C1.02734 10.4773 1.03775 9.66552 1.04463 9.42702C1.05362 8.69046 1.11877 7.95564 1.23954 7.22894C1.35192 6.54972 1.5677 5.89161 1.87943 5.2774C2.18647 4.66955 2.59011 4.11526 3.0747 3.636C3.55875 3.15218 4.11591 2.74708 4.72587 2.43548C5.33901 2.12654 5.99524 1.91124 6.67255 1.79681C7.4028 1.67771 8.14096 1.61332 8.88086 1.60418L9.94328 1.58984H130.947L132.022 1.60476C132.755 1.61344 133.487 1.67726 134.21 1.79566C134.895 1.91153 135.558 2.12832 136.178 2.43892C137.4 3.0669 138.394 4.06044 139.021 5.28026C139.328 5.89024 139.541 6.54298 139.652 7.21633C139.773 7.949 139.842 8.68958 139.856 9.43219C139.86 9.76471 139.86 10.1219 139.86 10.4773C139.869 10.9177 139.869 11.3367 139.869 11.7593V36.3326C139.869 36.7591 139.869 37.1754 139.86 37.595C139.86 37.9768 139.86 38.3266 139.855 38.6866C139.842 39.4159 139.774 40.1433 139.654 40.8628C139.543 41.5451 139.33 42.2065 139.018 42.8237C138.708 43.4254 138.304 43.9744 137.822 44.4506C137.341 44.9365 136.785 45.3419 136.174 45.6512C135.556 45.9635 134.894 46.1812 134.21 46.2968C133.483 46.4154 132.747 46.4794 132.01 46.4883C131.665 46.4963 131.303 46.5009 130.953 46.5009L129.677 46.5032L9.9427 46.5009Z" fill="#24221E"/>
<path d="M29.4325 23.9174C29.4457 22.8983 29.7171 21.8991 30.2216 21.0127C30.7261 20.1263 31.4472 19.3816 32.3179 18.8478C31.7648 18.0601 31.0351 17.4118 30.1868 16.9545C29.3385 16.4972 28.3949 16.2434 27.431 16.2133C25.375 15.9981 23.3817 17.4403 22.3339 17.4403C21.2659 17.4403 19.6527 16.2347 17.9156 16.2703C16.792 16.3066 15.697 16.6323 14.7372 17.2161C13.7773 17.7998 12.9855 18.6214 12.4389 19.6011C10.071 23.6894 11.8373 29.6979 14.1056 33.0027C15.2405 34.6209 16.5669 36.4285 18.3024 36.3645C20.0008 36.2942 20.6351 35.2846 22.6851 35.2846C24.7161 35.2846 25.3112 36.3645 27.082 36.3238C28.9044 36.2942 30.0526 34.6983 31.1477 33.0647C31.9631 31.9117 32.5906 30.6373 33.0068 29.2888C31.9481 28.8422 31.0445 28.0948 30.409 27.1396C29.7733 26.1844 29.4337 25.0638 29.4325 23.9174Z" fill="white"/>
<path d="M26.0864 14.0394C27.0801 12.8499 27.5697 11.321 27.4511 9.77734C25.9331 9.93634 24.5308 10.6598 23.5237 11.8037C23.0313 12.3625 22.6542 13.0126 22.4139 13.7168C22.1736 14.421 22.0749 15.1656 22.1233 15.9079C22.8826 15.9157 23.6338 15.7516 24.3203 15.4279C25.0068 15.1042 25.6106 14.6295 26.0864 14.0394Z" fill="white"/>
<path d="M49.8075 32.4286H44.2342L42.8958 36.3695H40.5352L45.8141 21.7891H48.2667L53.5456 36.3695H51.1447L49.8075 32.4286ZM44.8114 30.6101H49.2292L47.0513 24.2142H46.9904L44.8114 30.6101Z" fill="white"/>
<path d="M64.946 31.0539C64.946 34.3574 63.1729 36.4798 60.4973 36.4798C59.8194 36.5152 59.1453 36.3594 58.5521 36.0305C57.959 35.7016 57.4706 35.2128 57.1431 34.6199H57.0925V39.8852H54.9043V25.7381H57.0224V27.5063H57.0626C57.4052 26.9163 57.9018 26.43 58.4995 26.0991C59.0972 25.7681 59.7736 25.605 60.4569 25.627C63.1625 25.627 64.946 27.7597 64.946 31.0539ZM62.6969 31.0539C62.6969 28.9017 61.5815 27.4868 59.8797 27.4868C58.2079 27.4868 57.0833 28.9315 57.0833 31.0539C57.0833 33.1958 58.2079 34.6303 59.8797 34.6303C61.5815 34.6303 62.6969 33.2256 62.6969 31.0539Z" fill="white"/>
<path d="M76.6789 31.0539C76.6789 34.3574 74.9052 36.4798 72.2296 36.4798C71.5517 36.5152 70.8776 36.3594 70.2845 36.0305C69.6913 35.7016 69.203 35.2128 68.8755 34.6199H68.8248V39.8852H66.6367V25.7381H68.7547V27.5063H68.7949C69.1375 26.9163 69.6341 26.43 70.2318 26.0991C70.8295 25.7681 71.5059 25.605 72.1892 25.627C74.8949 25.627 76.6789 27.7597 76.6789 31.0539ZM74.4292 31.0539C74.4292 28.9017 73.3138 27.4868 71.6121 27.4868C69.9402 27.4868 68.8156 28.9315 68.8156 31.0539C68.8156 33.1958 69.9402 34.6303 71.6121 34.6303C73.3138 34.6303 74.4292 33.2256 74.4292 31.0539Z" fill="white"/>
<path d="M84.4353 32.306C84.5974 33.7519 86.006 34.7013 87.9308 34.7013C89.7752 34.7013 91.102 33.7519 91.102 32.4482C91.102 31.3165 90.3018 30.6388 88.4069 30.1745L86.5119 29.7192C83.827 29.0725 82.5806 27.8204 82.5806 25.7885C82.5806 23.2729 84.7791 21.5449 87.8997 21.5449C90.9906 21.5449 93.1085 23.2729 93.1798 25.7885H90.971C90.8387 24.3334 89.6326 23.4552 87.8698 23.4552C86.1072 23.4552 84.9009 24.3438 84.9009 25.6372C84.9009 26.668 85.6714 27.2746 87.5559 27.7389L89.1669 28.1334C92.1668 28.8408 93.4121 30.0426 93.4121 32.1752C93.4121 34.903 91.2343 36.6115 87.7686 36.6115C84.5261 36.6115 82.3368 34.9432 82.1953 32.3059L84.4353 32.306Z" fill="white"/>
<path d="M98.1335 23.2246V25.7403H100.161V27.4683H98.1335V33.3287C98.1335 34.2391 98.5389 34.6634 99.4303 34.6634C99.6709 34.6591 99.9115 34.6424 100.15 34.6129V36.3306C99.7495 36.4052 99.3421 36.439 98.9348 36.4314C96.7763 36.4314 95.9347 35.6231 95.9347 33.5614V27.4683H94.3848V25.7403H95.9347V23.2246H98.1335Z" fill="white"/>
<path d="M101.334 31.0559C101.334 27.7111 103.309 25.6094 106.39 25.6094C109.481 25.6094 111.447 27.7111 111.447 31.0559C111.447 34.4097 109.492 36.5023 106.39 36.5023C103.29 36.5023 101.334 34.4097 101.334 31.0559ZM109.218 31.0559C109.218 28.7614 108.163 27.4073 106.39 27.4073C104.617 27.4073 103.562 28.7718 103.562 31.0559C103.562 33.3594 104.617 34.7033 106.39 34.7033C108.163 34.7033 109.218 33.3594 109.218 31.0559Z" fill="white"/>
<path d="M113.252 25.7381H115.34V27.5475H115.39C115.531 26.9823 115.863 26.483 116.331 26.1332C116.797 25.7835 117.371 25.6046 117.954 25.6268C118.206 25.626 118.457 25.6533 118.704 25.7082V27.7492C118.386 27.6522 118.053 27.6078 117.72 27.6174C117.403 27.6046 117.086 27.6605 116.792 27.7812C116.497 27.902 116.233 28.0849 116.016 28.3172C115.8 28.5496 115.637 28.826 115.537 29.1273C115.437 29.4287 115.405 29.748 115.44 30.0631V36.3684H113.252V25.7381Z" fill="white"/>
<path d="M128.792 33.2482C128.498 35.1779 126.613 36.5023 124.202 36.5023C121.1 36.5023 119.176 34.4303 119.176 31.1063C119.176 27.7719 121.111 25.6094 124.11 25.6094C127.059 25.6094 128.914 27.6297 128.914 30.8529V31.6005H121.385V31.7324C121.35 32.1235 121.399 32.5177 121.529 32.8885C121.658 33.2593 121.866 33.5984 122.138 33.8832C122.409 34.168 122.738 34.392 123.102 34.5403C123.467 34.6886 123.859 34.7578 124.253 34.7434C124.769 34.7917 125.288 34.6722 125.732 34.4029C126.176 34.1335 126.52 33.7285 126.714 33.2482H128.792ZM121.395 30.0754H126.725C126.744 29.7237 126.69 29.3717 126.568 29.0415C126.444 28.7113 126.254 28.4101 126.009 28.1567C125.762 27.9034 125.467 27.7035 125.14 27.5693C124.814 27.4352 124.463 27.3699 124.11 27.3775C123.754 27.3754 123.4 27.4436 123.07 27.5783C122.74 27.7131 122.441 27.9116 122.188 28.1624C121.936 28.4132 121.736 28.7114 121.6 29.0398C121.464 29.3682 121.394 29.7201 121.395 30.0754Z" fill="white"/>
<path d="M44.5377 10.8146C44.9965 10.7818 45.4568 10.8509 45.8855 11.0169C46.3142 11.183 46.7007 11.4419 47.0169 11.7749C47.3331 12.108 47.5713 12.5068 47.7143 12.9427C47.8572 13.3786 47.9014 13.8408 47.8435 14.2958C47.8435 16.5339 46.6304 17.8205 44.5377 17.8205H42V10.8146H44.5377ZM43.0912 16.8297H44.4159C44.7437 16.8493 45.0717 16.7957 45.3761 16.6728C45.6805 16.5501 45.9537 16.361 46.1755 16.1197C46.3975 15.8783 46.5627 15.5906 46.6591 15.2776C46.7554 14.9645 46.7806 14.634 46.7328 14.3101C46.7772 13.9873 46.7494 13.6589 46.6515 13.3481C46.5537 13.0373 46.3881 12.7521 46.1667 12.5126C45.9452 12.2731 45.6735 12.0855 45.3707 11.9631C45.068 11.8407 44.7419 11.7866 44.4159 11.8047H43.0912V16.8297Z" fill="white"/>
<path d="M49.0763 15.1749C49.0429 14.8275 49.0828 14.4769 49.1933 14.1457C49.3038 13.8145 49.4825 13.51 49.7179 13.2517C49.9533 12.9934 50.2402 12.787 50.5604 12.6459C50.8804 12.5046 51.2266 12.4316 51.5766 12.4316C51.9266 12.4316 52.2728 12.5046 52.5928 12.6459C52.913 12.787 53.1999 12.9934 53.4354 13.2517C53.6708 13.51 53.8494 13.8145 53.9599 14.1457C54.0704 14.4769 54.1102 14.8275 54.077 15.1749C54.1109 15.5228 54.0715 15.8738 53.9613 16.2055C53.8511 16.5372 53.6726 16.8423 53.4371 17.1011C53.2016 17.3599 52.9144 17.5667 52.594 17.7082C52.2736 17.8498 51.927 17.9228 51.5766 17.9228C51.2261 17.9228 50.8796 17.8498 50.5592 17.7082C50.2388 17.5667 49.9516 17.3599 49.7161 17.1011C49.4806 16.8423 49.3021 16.5372 49.1919 16.2055C49.0817 15.8738 49.0423 15.5228 49.0763 15.1749ZM53.0007 15.1749C53.0007 14.0289 52.4843 13.3587 51.5783 13.3587C50.6688 13.3587 50.1571 14.0289 50.1571 15.1749C50.1571 16.3302 50.6688 16.9952 51.5783 16.9952C52.4844 16.9952 53.0007 16.3256 53.0007 15.1749Z" fill="white"/>
<path d="M60.7238 17.8203H59.6384L58.5426 13.9264H58.4598L57.3686 17.8203H56.2934L54.832 12.5332H55.8934L56.8431 16.5676H56.9213L58.0113 12.5332H59.0151L60.1052 16.5676H60.188L61.1332 12.5332H62.1795L60.7238 17.8203Z" fill="white"/>
<path d="M63.4082 12.5331H64.4155V13.373H64.4936C64.6262 13.0712 64.85 12.8184 65.1336 12.6496C65.4172 12.4807 65.7466 12.4043 66.0759 12.431C66.3338 12.4116 66.5929 12.4504 66.8337 12.5445C67.0746 12.6385 67.2912 12.7854 67.4675 12.9742C67.6437 13.1632 67.7751 13.3891 67.8518 13.6355C67.9286 13.8818 67.9488 14.1423 67.911 14.3974V17.8201H66.8646V14.6595C66.8646 13.8098 66.4943 13.3873 65.7205 13.3873C65.5453 13.3791 65.3705 13.4089 65.208 13.4744C65.0454 13.5399 64.899 13.6398 64.7787 13.7671C64.6585 13.8943 64.5673 14.046 64.5113 14.2117C64.4554 14.3775 64.436 14.5532 64.4545 14.7271V17.8202H63.4082V12.5331Z" fill="white"/>
<path d="M69.5801 10.4688H70.6265V17.8198H69.5801V10.4688Z" fill="white"/>
<path d="M72.0802 15.173C72.0469 14.8255 72.0868 14.475 72.1973 14.1437C72.3078 13.8126 72.4865 13.5081 72.722 13.2498C72.9574 12.9915 73.2443 12.7851 73.5645 12.6438C73.8846 12.5026 74.2307 12.4297 74.5807 12.4297C74.9308 12.4297 75.277 12.5026 75.5971 12.6438C75.9173 12.7851 76.2042 12.9915 76.4396 13.2498C76.6751 13.5081 76.8538 13.8126 76.9643 14.1437C77.0748 14.475 77.1147 14.8255 77.0814 15.173C77.1154 15.5208 77.0759 15.8719 76.9656 16.2036C76.8554 16.5354 76.6769 16.8404 76.4414 17.0991C76.2059 17.3579 75.9186 17.5648 75.5982 17.7062C75.2778 17.8478 74.9313 17.9209 74.5807 17.9209C74.2303 17.9209 73.8837 17.8478 73.5633 17.7062C73.2429 17.5648 72.9557 17.3579 72.7202 17.0991C72.4847 16.8404 72.3062 16.5354 72.1959 16.2036C72.0857 15.8719 72.0462 15.5208 72.0802 15.173ZM76.0046 15.173C76.0046 14.027 75.4882 13.3567 74.5822 13.3567C73.6727 13.3567 73.161 14.027 73.161 15.1731C73.161 16.3282 73.6728 16.9933 74.5822 16.9933C75.4883 16.9933 76.0046 16.3236 76.0046 15.173Z" fill="white"/>
<path d="M78.1816 16.3256C78.1816 15.3739 78.8923 14.8253 80.1536 14.7472L81.5898 14.6647V14.2084C81.5898 13.65 81.2196 13.3346 80.5043 13.3346C79.9202 13.3346 79.5155 13.5485 79.3993 13.9223H78.3863C78.4932 13.0141 79.3498 12.4316 80.5526 12.4316C81.8819 12.4316 82.6315 13.0916 82.6315 14.2084V17.8208H81.6242V17.0778H81.5415C81.3735 17.3443 81.1375 17.5615 80.8577 17.7074C80.5779 17.8532 80.2643 17.9224 79.949 17.9078C79.7263 17.9309 79.5014 17.9073 79.2886 17.8384C79.0757 17.7694 78.8798 17.6568 78.7132 17.5078C78.5467 17.3586 78.4134 17.1764 78.3219 16.9728C78.2302 16.7692 78.1825 16.5487 78.1816 16.3256ZM81.5898 15.8738V15.4318L80.2951 15.5143C79.5649 15.5631 79.2338 15.8108 79.2338 16.2768C79.2338 16.7527 79.6476 17.0296 80.2169 17.0296C80.3837 17.0465 80.5522 17.0297 80.7123 16.9802C80.8724 16.9308 81.021 16.8498 81.149 16.7419C81.2772 16.6341 81.3821 16.5017 81.4578 16.3525C81.5336 16.2034 81.5784 16.0406 81.5898 15.8738Z" fill="white"/>
<path d="M84.0078 15.174C84.0078 13.5033 84.869 12.445 86.2086 12.445C86.5399 12.4297 86.8688 12.5089 87.1567 12.6732C87.4446 12.8374 87.6797 13.08 87.8345 13.3726H87.9127V10.4688H88.959V17.8198H87.9563V16.9844H87.8736C87.7068 17.275 87.4635 17.5146 87.17 17.6772C86.8766 17.8398 86.5441 17.9192 86.2086 17.9069C84.8598 17.907 84.0078 16.8486 84.0078 15.174ZM85.0887 15.174C85.0887 16.2954 85.6187 16.9702 86.5052 16.9702C87.3871 16.9702 87.9322 16.2856 87.9322 15.1786C87.9322 14.0766 87.3815 13.3824 86.5052 13.3824C85.6245 13.3824 85.0887 14.0617 85.0887 15.174Z" fill="white"/>
<path d="M93.2873 15.1749C93.2539 14.8275 93.2938 14.4769 93.4043 14.1457C93.5147 13.8145 93.6935 13.51 93.9289 13.2517C94.1643 12.9934 94.4512 12.787 94.7713 12.6459C95.0914 12.5046 95.4375 12.4316 95.7876 12.4316C96.1376 12.4316 96.4836 12.5046 96.8037 12.6459C97.1239 12.787 97.4105 12.9934 97.6462 13.2517C97.882 13.51 98.0603 13.8145 98.1705 14.1457C98.2817 14.4769 98.321 14.8275 98.2875 15.1749C98.322 15.5228 98.2827 15.8738 98.1725 16.2055C98.0622 16.5372 97.884 16.8423 97.6482 17.1011C97.4124 17.3599 97.1258 17.5667 96.8047 17.7082C96.4846 17.8498 96.1376 17.9228 95.7876 17.9228C95.4371 17.9228 95.0905 17.8498 94.7701 17.7082C94.4497 17.5667 94.1625 17.3599 93.9271 17.1011C93.6916 16.8423 93.5131 16.5372 93.4028 16.2055C93.2926 15.8738 93.2532 15.5228 93.2873 15.1749ZM97.2121 15.1749C97.2121 14.0289 96.6954 13.3587 95.7893 13.3587C94.8798 13.3587 94.3681 14.0289 94.3681 15.1749C94.3681 16.3302 94.8798 16.9952 95.7893 16.9952C96.6954 16.9952 97.2121 16.3256 97.2121 15.1749Z" fill="white"/>
<path d="M99.6914 12.5331H100.699V13.373H100.777C100.91 13.0712 101.134 12.8184 101.417 12.6496C101.7 12.4807 102.03 12.4043 102.359 12.431C102.618 12.4116 102.876 12.4504 103.117 12.5445C103.359 12.6385 103.574 12.7854 103.751 12.9742C103.927 13.1632 104.058 13.3891 104.135 13.6355C104.212 13.8818 104.233 14.1423 104.194 14.3974V17.8201H103.148V14.6595C103.148 13.8098 102.778 13.3873 102.004 13.3873C101.829 13.3791 101.654 13.4089 101.491 13.4744C101.328 13.5399 101.183 13.6398 101.062 13.7671C100.942 13.8943 100.851 14.046 100.795 14.2117C100.739 14.3775 100.72 14.5532 100.738 14.7271V17.8202H99.6914V12.5331Z" fill="white"/>
<path d="M110.11 11.2168V12.5571H111.258V13.4361H110.11V16.1547C110.11 16.7085 110.338 16.951 110.859 16.951C110.993 16.9506 111.126 16.9426 111.258 16.927V17.7961C111.07 17.8297 110.88 17.8475 110.689 17.8494C109.525 17.8494 109.062 17.4412 109.062 16.4219V13.4361H108.221V12.5571H109.062V11.2168H110.11Z" fill="white"/>
<path d="M112.686 10.4688H113.723V13.3824H113.806C113.945 13.0778 114.175 12.8236 114.464 12.6541C114.753 12.4845 115.088 12.4081 115.422 12.4352C115.679 12.4213 115.936 12.464 116.173 12.5604C116.412 12.6567 116.626 12.8042 116.8 12.9925C116.975 13.1808 117.105 13.4051 117.183 13.6495C117.26 13.8938 117.282 14.1522 117.248 14.4063V17.8198H116.201V14.6637C116.201 13.8191 115.806 13.3915 115.067 13.3915C114.887 13.3768 114.706 13.4014 114.537 13.4637C114.368 13.526 114.214 13.6245 114.087 13.7521C113.96 13.8798 113.863 14.0336 113.801 14.2029C113.74 14.3721 113.716 14.5527 113.732 14.7319V17.8198H112.686V10.4688Z" fill="white"/>
<path d="M123.351 16.3913C123.208 16.8746 122.901 17.2926 122.481 17.5721C122.061 17.8517 121.556 17.9752 121.054 17.9209C120.704 17.9301 120.357 17.8634 120.037 17.7254C119.716 17.5874 119.428 17.3814 119.195 17.1218C118.962 16.8622 118.789 16.5551 118.687 16.2218C118.585 15.8886 118.557 15.5372 118.605 15.1919C118.558 14.8457 118.587 14.4936 118.688 14.1594C118.79 13.825 118.963 13.5165 119.194 13.2546C119.426 12.9927 119.712 12.7836 120.032 12.6412C120.352 12.4989 120.699 12.4268 121.049 12.4298C122.524 12.4298 123.414 13.4348 123.414 15.095V15.4592H119.671V15.5176C119.654 15.7116 119.678 15.907 119.743 16.091C119.806 16.275 119.907 16.4438 120.041 16.5863C120.173 16.729 120.335 16.8424 120.514 16.9191C120.693 16.9959 120.887 17.0344 121.082 17.0322C121.333 17.0622 121.587 17.0173 121.811 16.9031C122.035 16.7891 122.221 16.6109 122.344 16.3913H123.351ZM119.671 14.6875H122.349C122.361 14.51 122.337 14.3318 122.278 14.1643C122.217 13.9966 122.122 13.8434 122 13.7144C121.877 13.5854 121.729 13.4835 121.564 13.4152C121.399 13.347 121.221 13.3137 121.043 13.3178C120.862 13.3155 120.683 13.3494 120.515 13.4175C120.347 13.4855 120.195 13.5863 120.067 13.714C119.939 13.8416 119.838 13.9935 119.77 14.1607C119.702 14.3279 119.668 14.507 119.671 14.6875Z" fill="white"/>
</g>
</g>
</g>
<defs>
<clipPath id="clip0_2077_9676">
<rect width="140.897" height="46.9658" fill="white" transform="translate(0 0.5625)"/>
</clipPath>
<clipPath id="clip1_2077_9676">
<rect width="140.897" height="46.9658" fill="white" transform="translate(0 0.5625)"/>
</clipPath>
<clipPath id="clip2_2077_9676">
<rect width="140.897" height="46.9658" fill="white" transform="translate(0 0.5625)"/>
</clipPath>
</defs>
</svg>
