<svg width="284" height="48" viewBox="0 0 284 48" fill="none" xmlns="http://www.w3.org/2000/svg">
<g clip-path="url(#clip0_2077_17914)">
<circle cx="24.75" cy="24" r="22.5" fill="white" stroke="#871E35" stroke-width="3"/>
<path d="M15.7977 25.77C15.7977 21.61 16.9177 18.41 20.9977 18.41C25.0777 18.41 26.1977 21.61 26.1977 25.77C26.1977 30.01 25.0777 33.21 20.9977 33.21C16.9177 33.21 15.7977 30.01 15.7977 25.77ZM23.9577 25.77C23.9577 23.05 23.6577 20.49 20.9977 20.49C18.3377 20.49 18.0377 23.05 18.0377 25.77C18.0377 28.63 18.3377 31.13 20.9977 31.13C23.6577 31.13 23.9577 28.63 23.9577 25.77ZM30.1702 33.25V20.75H28.3102V18.67H32.4702V33.25H30.1702Z" fill="#871E35"/>
</g>
<rect x="56.75" y="23" width="54" height="2" fill="#871E35"/>
<g clip-path="url(#clip1_2077_17914)">
<circle cx="142.75" cy="24" r="22.5" fill="white" stroke="#871E35" stroke-width="3"/>
<path d="M132.022 25.77C132.022 21.61 133.142 18.41 137.222 18.41C141.302 18.41 142.422 21.61 142.422 25.77C142.422 30.01 141.302 33.21 137.222 33.21C133.142 33.21 132.022 30.01 132.022 25.77ZM140.182 25.77C140.182 23.05 139.882 20.49 137.222 20.49C134.562 20.49 134.262 23.05 134.262 25.77C134.262 28.63 134.562 31.13 137.222 31.13C139.882 31.13 140.182 28.63 140.182 25.77ZM144.655 33.05V31.39C148.095 28.37 151.715 25.73 151.715 22.87C151.715 21.35 151.055 20.31 149.355 20.31C147.755 20.31 146.895 21.43 146.835 23.07H144.635C144.715 19.91 146.755 18.37 149.335 18.37C152.295 18.37 153.975 20.15 153.975 22.77C153.975 26.31 150.375 29.01 148.035 31.15H154.375V33.05H144.655Z" fill="#871E35"/>
</g>
<rect x="174.75" y="23" width="53" height="2" fill="#A3AAB2"/>
<g clip-path="url(#clip2_2077_17914)">
<circle cx="259.75" cy="24" r="22.5" fill="white" stroke="#A3AAB2" stroke-width="3"/>
<path d="M248.856 25.77C248.856 21.61 249.976 18.41 254.056 18.41C258.136 18.41 259.256 21.61 259.256 25.77C259.256 30.01 258.136 33.21 254.056 33.21C249.976 33.21 248.856 30.01 248.856 25.77ZM257.016 25.77C257.016 23.05 256.716 20.49 254.056 20.49C251.396 20.49 251.096 23.05 251.096 25.77C251.096 28.63 251.396 31.13 254.056 31.13C256.716 31.13 257.016 28.63 257.016 25.77ZM261.629 22.27C261.789 19.75 263.749 18.33 266.409 18.33C269.309 18.33 270.889 20.01 270.889 22.13C270.889 23.87 269.789 25.05 268.649 25.43V25.51C270.169 25.97 271.149 27.23 271.149 29.25C271.149 31.57 269.509 33.33 266.469 33.33C263.709 33.33 261.569 31.89 261.429 29.03H263.629C263.729 30.39 264.729 31.43 266.449 31.43C268.149 31.43 268.989 30.39 268.989 29.03C268.989 27.11 267.749 26.45 265.369 26.45H264.849V24.57H265.389C267.449 24.55 268.709 23.95 268.709 22.39C268.709 21.13 267.889 20.29 266.329 20.29C264.729 20.29 263.989 21.25 263.849 22.27H261.629Z" fill="#898886"/>
</g>
<defs>
<clipPath id="clip0_2077_17914">
<rect width="48" height="48" fill="white" transform="translate(0.75)"/>
</clipPath>
<clipPath id="clip1_2077_17914">
<rect width="48" height="48" fill="white" transform="translate(118.75)"/>
</clipPath>
<clipPath id="clip2_2077_17914">
<rect width="48" height="48" fill="white" transform="translate(235.75)"/>
</clipPath>
</defs>
</svg>
