<svg width="284" height="48" viewBox="0 0 284 48" fill="none" xmlns="http://www.w3.org/2000/svg">
<g clip-path="url(#clip0_2077_19755)">
<circle cx="24.75" cy="24" r="22.5" fill="white" stroke="#871E35" stroke-width="3"/>
<path d="M15.7977 25.77C15.7977 21.61 16.9177 18.41 20.9977 18.41C25.0777 18.41 26.1977 21.61 26.1977 25.77C26.1977 30.01 25.0777 33.21 20.9977 33.21C16.9177 33.21 15.7977 30.01 15.7977 25.77ZM23.9577 25.77C23.9577 23.05 23.6577 20.49 20.9977 20.49C18.3377 20.49 18.0377 23.05 18.0377 25.77C18.0377 28.63 18.3377 31.13 20.9977 31.13C23.6577 31.13 23.9577 28.63 23.9577 25.77ZM30.1702 33.25V20.75H28.3102V18.67H32.4702V33.25H30.1702Z" fill="#871E35"/>
</g>
<rect x="56.75" y="23" width="54" height="2" fill="#871E35"/>
<g clip-path="url(#clip1_2077_19755)">
<circle cx="142.75" cy="24" r="22.5" fill="white" stroke="#871E35" stroke-width="3"/>
<path d="M132.022 25.77C132.022 21.61 133.142 18.41 137.222 18.41C141.302 18.41 142.422 21.61 142.422 25.77C142.422 30.01 141.302 33.21 137.222 33.21C133.142 33.21 132.022 30.01 132.022 25.77ZM140.182 25.77C140.182 23.05 139.882 20.49 137.222 20.49C134.562 20.49 134.262 23.05 134.262 25.77C134.262 28.63 134.562 31.13 137.222 31.13C139.882 31.13 140.182 28.63 140.182 25.77ZM144.655 33.05V31.39C148.095 28.37 151.715 25.73 151.715 22.87C151.715 21.35 151.055 20.31 149.355 20.31C147.755 20.31 146.895 21.43 146.835 23.07H144.635C144.715 19.91 146.755 18.37 149.335 18.37C152.295 18.37 153.975 20.15 153.975 22.77C153.975 26.31 150.375 29.01 148.035 31.15H154.375V33.05H144.655Z" fill="#871E35"/>
</g>
<rect x="174.75" y="23" width="53" height="2" fill="#A3AAB2"/>
<g clip-path="url(#clip2_2077_19755)">
<circle cx="259.75" cy="24" r="22.5" fill="white" stroke="#871E35" stroke-width="3"/>
<path d="M248.856 25.77C248.856 23.4633 249.243 21.6633 250.016 20.37C250.803 19.0633 252.15 18.41 254.056 18.41C255.963 18.41 257.303 19.0633 258.076 20.37C258.863 21.6633 259.256 23.4633 259.256 25.77C259.256 28.1033 258.863 29.93 258.076 31.25C257.303 32.5567 255.963 33.21 254.056 33.21C252.15 33.21 250.803 32.5567 250.016 31.25C249.243 29.93 248.856 28.1033 248.856 25.77ZM257.016 25.77C257.016 24.69 256.943 23.7767 256.796 23.03C256.663 22.2833 256.383 21.6767 255.956 21.21C255.53 20.73 254.896 20.49 254.056 20.49C253.216 20.49 252.583 20.73 252.156 21.21C251.73 21.6767 251.443 22.2833 251.296 23.03C251.163 23.7767 251.096 24.69 251.096 25.77C251.096 26.89 251.163 27.83 251.296 28.59C251.43 29.35 251.71 29.9633 252.136 30.43C252.576 30.8967 253.216 31.13 254.056 31.13C254.896 31.13 255.53 30.8967 255.956 30.43C256.396 29.9633 256.683 29.35 256.816 28.59C256.95 27.83 257.016 26.89 257.016 25.77ZM261.629 22.27C261.709 21.03 262.182 20.0633 263.049 19.37C263.929 18.6767 265.049 18.33 266.409 18.33C267.342 18.33 268.149 18.4967 268.829 18.83C269.509 19.1633 270.022 19.6167 270.369 20.19C270.715 20.7633 270.889 21.41 270.889 22.13C270.889 22.9567 270.669 23.6633 270.229 24.25C269.789 24.8367 269.262 25.23 268.649 25.43V25.51C269.435 25.75 270.049 26.19 270.489 26.83C270.929 27.4567 271.149 28.2633 271.149 29.25C271.149 30.0367 270.969 30.7367 270.609 31.35C270.249 31.9633 269.715 32.45 269.009 32.81C268.302 33.1567 267.455 33.33 266.469 33.33C265.029 33.33 263.842 32.9633 262.909 32.23C261.989 31.4833 261.495 30.4167 261.429 29.03H263.629C263.682 29.7367 263.955 30.3167 264.449 30.77C264.942 31.21 265.609 31.43 266.449 31.43C267.262 31.43 267.889 31.21 268.329 30.77C268.769 30.3167 268.989 29.7367 268.989 29.03C268.989 28.0967 268.689 27.4367 268.089 27.05C267.502 26.65 266.595 26.45 265.369 26.45H264.849V24.57H265.389C266.469 24.5567 267.289 24.3767 267.849 24.03C268.422 23.6833 268.709 23.1367 268.709 22.39C268.709 21.75 268.502 21.2433 268.089 20.87C267.675 20.4833 267.089 20.29 266.329 20.29C265.582 20.29 265.002 20.4833 264.589 20.87C264.175 21.2433 263.929 21.71 263.849 22.27H261.629Z" fill="#871E35"/>
</g>
<defs>
<clipPath id="clip0_2077_19755">
<rect width="48" height="48" fill="white" transform="translate(0.75)"/>
</clipPath>
<clipPath id="clip1_2077_19755">
<rect width="48" height="48" fill="white" transform="translate(118.75)"/>
</clipPath>
<clipPath id="clip2_2077_19755">
<rect width="48" height="48" fill="white" transform="translate(235.75)"/>
</clipPath>
</defs>
</svg>
