<svg width="20" height="20" viewBox="0 0 20 20" fill="none" xmlns="http://www.w3.org/2000/svg">
<path d="M6.38229 9.90075C6.66319 10.182 6.82097 10.5632 6.82097 10.9608C6.82097 11.3583 6.66319 11.7395 6.38229 12.0208L5.40829 12.9968H13.8223C14.2201 12.9968 14.6016 13.1548 14.8829 13.4361C15.1643 13.7174 15.3223 14.0989 15.3223 14.4968C15.3223 14.8946 15.1643 15.2761 14.8829 15.5574C14.6016 15.8387 14.2201 15.9968 13.8223 15.9968H5.40829L6.38329 16.9708C6.66468 17.2521 6.82277 17.6338 6.82277 18.0318C6.82277 18.4297 6.66468 18.8114 6.38329 19.0928C6.10189 19.3741 5.72024 19.5322 5.32229 19.5322C4.92434 19.5322 4.54268 19.3741 4.26129 19.0928L0.726289 15.5568C0.445082 15.2755 0.287109 14.894 0.287109 14.4963C0.287109 14.0985 0.445082 13.717 0.726289 13.4358L4.26129 9.89975C4.40059 9.76036 4.56599 9.64979 4.74804 9.57434C4.93009 9.4989 5.12523 9.46007 5.32229 9.46007C5.51935 9.46007 5.71449 9.4989 5.89654 9.57434C6.07859 9.64979 6.24399 9.76036 6.38329 9.89975L6.38229 9.90075ZM13.2623 0.900751C13.5247 0.638148 13.8751 0.482159 14.2458 0.462949C14.6165 0.443739 14.9812 0.562673 15.2693 0.796751L15.3833 0.899751L18.9183 4.43575C19.1807 4.69825 19.3366 5.04874 19.3556 5.41945C19.3746 5.79016 19.2555 6.15476 19.0213 6.44275L18.9183 6.55675L15.3833 10.0928C15.1121 10.368 14.7451 10.528 14.3588 10.5393C13.9725 10.5506 13.5968 10.4124 13.3099 10.1535C13.023 9.89458 12.8471 9.53495 12.8189 9.14955C12.7906 8.76414 12.9122 8.38271 13.1583 8.08475L13.2613 7.97075L14.2363 6.99675H5.82229C5.43516 6.99943 5.06198 6.85232 4.78081 6.5862C4.49964 6.32007 4.33225 5.95554 4.31365 5.56885C4.29505 5.18215 4.42668 4.80324 4.68102 4.51136C4.93535 4.21948 5.29269 4.03724 5.67829 4.00275L5.82229 3.99675H14.2363L13.2613 3.02175C13.1219 2.88245 13.0113 2.71705 12.9359 2.535C12.8604 2.35295 12.8216 2.15781 12.8216 1.96075C12.8216 1.76369 12.8604 1.56855 12.9359 1.3865C13.0113 1.20445 13.1219 1.03905 13.2613 0.899751L13.2623 0.900751Z" fill="#24221E"/>
</svg>
